<svg xmlns="http://www.w3.org/2000/svg" viewBox="0 0 111.37 92.52"><defs><style>.cls-1{fill:#dcdddd;}.cls-2{fill:#323333;}</style></defs><title>资源 84</title><g id="图层_2" data-name="图层 2"><g id="图层_1-2" data-name="图层 1"><circle class="cls-1" cx="50.77" cy="52.52" r="40"/><path class="cls-2" d="M69.71,31.94l3.1-3.09L77,33.08l4.23-4.23,3.1,3.09-4.24,4.23,4.23,4.23-3.09,3.09L77,39.27l-4.23,4.22L69.72,40.4,74,36.17Zm23.78,4.23A16.16,16.16,0,1,0,77.33,52.32,16.15,16.15,0,0,0,93.49,36.17ZM75,65.94H33.13L18.7,23.28a2.87,2.87,0,0,0-2.9-1.88H3.05a2.88,2.88,0,1,0,0,5.76H13.61L28,69.82a2.88,2.88,0,0,0,2.9,1.87H75a2.88,2.88,0,1,0,0-5.75ZM68,77a6,6,0,1,0,6,6A6,6,0,0,0,68,77Zm9.37-19A21.85,21.85,0,0,1,55.48,36.17a22.3,22.3,0,0,1,.73-5.64L29.72,28.22a1.87,1.87,0,0,0-2.08,2.64L36.71,58a4.8,4.8,0,0,0,4,3.11H78.61A3.7,3.7,0,0,0,82,57.85l0-.34A22,22,0,0,1,77.33,58ZM39.2,77a6,6,0,1,0,6,6A6,6,0,0,0,39.2,77Z"/><polygon class="cls-1" points="87.94 17.98 88.71 0 100.35 1.08 87.94 17.98"/><polygon class="cls-1" points="91.35 19.98 102.64 5.96 111.37 13.73 91.35 19.98"/></g></g></svg>